<?xml version="1.0" encoding="utf-8"?>
<!-- Generated by IcoMoon.io -->
<!DOCTYPE svg PUBLIC "-//W3C//DTD SVG 1.1//EN" "http://www.w3.org/Graphics/SVG/1.1/DTD/svg11.dtd">
<svg version="1.1" xmlns="http://www.w3.org/2000/svg" xmlns:xlink="http://www.w3.org/1999/xlink" width="30" height="32" viewBox="0 0 30 32">
<g>
</g>
	<path d="M12.8 8.576q-0.544 0.512-1.28 0.432t-1.184-0.624q-1.184-1.504-3.344-1.472t-3.376 1.76q-0.416 0.576-1.12 0.704t-1.28-0.288-0.704-1.104 0.288-1.264q1.088-1.536 2.752-2.4t3.52-0.864q1.696 0 3.232 0.704t2.624 1.984q0.48 0.544 0.448 1.248t-0.576 1.184zM28.32 8.576q-0.544 0.512-1.28 0.432t-1.184-0.624q-1.184-1.504-3.344-1.472t-3.376 1.76q-0.416 0.576-1.12 0.704t-1.28-0.288-0.704-1.104 0.288-1.264q1.088-1.536 2.752-2.4t3.552-0.864q1.696 0 3.232 0.704t2.624 1.984q0.48 0.544 0.432 1.248t-0.592 1.184zM4.96 20.288q1.376 2.752 4 4.48t5.696 1.824q3.328 0.096 6.224-1.648t4.368-4.656h-20.288zM14.72 29.952q-2.208-0.032-4.576-0.928t-4.336-2.352-3.264-3.6-1.328-4.448q0-0.704 0.48-1.216t1.184-0.512h24.48q0.704 0 1.2 0.496t0.496 1.2q-0.064 2.304-1.472 4.464t-3.52 3.648-4.608 2.384-4.736 0.864z" fill="#222222" />
</svg>
