<?xml version="1.0" encoding="utf-8"?>
<!-- Generated by IcoMoon.io -->
<!DOCTYPE svg PUBLIC "-//W3C//DTD SVG 1.1//EN" "http://www.w3.org/Graphics/SVG/1.1/DTD/svg11.dtd">
<svg version="1.1" xmlns="http://www.w3.org/2000/svg" xmlns:xlink="http://www.w3.org/1999/xlink" width="33" height="32" viewBox="0 0 33 32">
<g>
</g>
	<path d="M8.832 1.568q1.472 0 2.496 1.344t1.024 3.264-1.024 3.28-2.496 1.36-2.48-1.36-1.008-3.28 1.008-3.264 2.48-1.344zM29.568 21.248q0.48-0.512 1.168-0.528t1.2 0.496 0.512 1.232-0.48 1.232q-4 4.192-9.472 5.808t-11.072 0.32-9.888-5.328l-0.544-0.544q-0.512-0.512-0.512-1.216t0.48-1.216 1.184-0.528 1.216 0.496l0.48 0.48q3.648 3.424 8.4 4.496t9.36-0.304 7.968-4.896zM24.096 1.568q1.472 0 2.48 1.344t1.008 3.264-1.008 3.28-2.48 1.36-2.496-1.36-1.024-3.28 1.024-3.264 2.496-1.344z" fill="#222222" />
</svg>
